<?xml version="1.0" encoding="UTF-8" standalone="no"?>
<svg
   xmlns:dc="http://purl.org/dc/elements/1.1/"
   xmlns:cc="http://creativecommons.org/ns#"
   xmlns:rdf="http://www.w3.org/1999/02/22-rdf-syntax-ns#"
   xmlns:svg="http://www.w3.org/2000/svg"
   xmlns="http://www.w3.org/2000/svg"
   xmlns:sodipodi="http://sodipodi.sourceforge.net/DTD/sodipodi-0.dtd"
   xmlns:inkscape="http://www.inkscape.org/namespaces/inkscape"
   version="1.1"
   id="Layer_1"
   x="0px"
   y="0px"
   viewBox="0 0 262.5 300"
   xml:space="preserve"
   sodipodi:docname="opensourcery.svg"
   width="262.5"
   height="300"
   inkscape:version="1.0.2 (1.0.2+r75+1)"><metadata
   id="metadata61"><rdf:RDF><cc:Work
       rdf:about=""><dc:format>image/svg+xml</dc:format><dc:type
         rdf:resource="http://purl.org/dc/dcmitype/StillImage" /><dc:title></dc:title></cc:Work></rdf:RDF></metadata><defs
   id="defs59" /><sodipodi:namedview
   pagecolor="#ffffff"
   bordercolor="#666666"
   borderopacity="1"
   objecttolerance="10"
   gridtolerance="10"
   guidetolerance="10"
   inkscape:pageopacity="0"
   inkscape:pageshadow="2"
   inkscape:window-width="822"
   inkscape:window-height="1118"
   id="namedview57"
   showgrid="false"
   fit-margin-top="0"
   fit-margin-left="0"
   fit-margin-right="0"
   fit-margin-bottom="0"
   inkscape:zoom="1.47"
   inkscape:cx="130.7"
   inkscape:cy="104.9"
   inkscape:window-x="2450"
   inkscape:window-y="59"
   inkscape:window-maximized="0"
   inkscape:current-layer="Layer_1" />
<style
   type="text/css"
   id="style2">
	.st0{fill:#E53323;}
	.st1{fill:#231F20;}
</style>
<g
   id="g54"
   transform="translate(-119.3,-101.1)">
	<g
   id="g8">
		<path
   class="st0"
   d="m 203.4,145.1 c -31.9,0 -62.1,19.6 -84.1,19.6 v 158.7 c 22,0 52.2,-19.6 84.1,-19.6 18.8,0 30.6,7.8 37.7,15.5 H 260 c 7.1,-7.8 18.9,-15.5 37.7,-15.5 31.9,0 62.1,19.6 84.1,19.6 V 164.7 c -22,0 -52.2,-19.6 -84.1,-19.6 -37.6,0 -47.1,31 -47.1,31 0,0 -9.6,-31 -47.2,-31 z"
   id="path4" />
		<path
   class="st1"
   d="m 203.4,321.3 c -31.9,0 -62.1,19.6 -84.1,19.6 v 13.9 c 22,0 52.2,-19.6 84.1,-19.6 18.8,0 30.6,7.8 37.7,15.5 H 260 c 7.1,-7.8 18.9,-15.5 37.7,-15.5 31.9,0 62.1,19.6 84.1,19.6 V 341 c -22,0 -52.2,-19.6 -84.1,-19.6 -18.8,0 -30.6,7.8 -37.7,15.5 h -19 c -7.1,-7.8 -18.8,-15.6 -37.6,-15.6 z"
   id="path6" />
	</g>
	<g
   id="g26">
		<g
   id="g24">
			<g
   id="g22">
				<g
   id="g12">
					<polygon
   class="st1"
   points="197.7,239.6 223.5,213.7 229,219.2 208.6,239.6 229,259.9 223.5,265.4 "
   id="polygon10" />
				</g>
				<g
   id="g16">
					<polygon
   class="st1"
   points="268.6,259.9 289,239.6 268.6,219.2 274.1,213.7 299.9,239.6 274.1,265.4 "
   id="polygon14" />
				</g>
				<g
   id="g20">
					
						<rect
   x="222"
   y="235.3"
   transform="matrix(0.251,-0.968,0.968,0.251,-45.1234,419.971)"
   class="st1"
   width="53.599998"
   height="7.8000002"
   id="rect18" />
				</g>
			</g>
		</g>
	</g>
	<g
   id="g52">
		<g
   id="g32">
			<path
   class="st0"
   d="m 203.4,145.1 c -31.9,0 -62.1,19.6 -84.1,19.6 v 158.7 c 22,0 52.2,-19.6 84.1,-19.6 18.8,0 30.6,7.8 37.7,15.5 H 260 c 7.1,-7.8 18.9,-15.5 37.7,-15.5 31.9,0 62.1,19.6 84.1,19.6 V 164.7 c -22,0 -52.2,-19.6 -84.1,-19.6 -37.6,0 -47.1,31 -47.1,31 0,0 -9.6,-31 -47.2,-31 z"
   id="path28" />
			<path
   class="st1"
   d="m 203.4,321.3 c -31.9,0 -62.1,19.6 -84.1,19.6 v 13.9 c 22,0 52.2,-19.6 84.1,-19.6 18.8,0 30.6,7.8 37.7,15.5 H 260 c 7.1,-7.8 18.9,-15.5 37.7,-15.5 31.9,0 62.1,19.6 84.1,19.6 V 341 c -22,0 -52.2,-19.6 -84.1,-19.6 -18.8,0 -30.6,7.8 -37.7,15.5 h -19 c -7.1,-7.8 -18.8,-15.6 -37.6,-15.6 z"
   id="path30" />
		</g>
		<g
   id="g50">
			<g
   id="g48">
				<g
   id="g46">
					<g
   id="g36">
						<polygon
   class="st1"
   points="197.7,239.6 223.5,213.7 229,219.2 208.6,239.6 229,259.9 223.5,265.4 "
   id="polygon34" />
					</g>
					<g
   id="g40">
						<polygon
   class="st1"
   points="268.6,259.9 289,239.6 268.6,219.2 274.1,213.7 299.9,239.6 274.1,265.4 "
   id="polygon38" />
					</g>
					<g
   id="g44">
						
							<rect
   x="222"
   y="235.3"
   transform="matrix(0.251,-0.968,0.968,0.251,-45.1234,419.971)"
   class="st1"
   width="53.599998"
   height="7.8000002"
   id="rect42" />
					</g>
				</g>
			</g>
		</g>
	</g>
</g>
</svg>
