<?xml version="1.0" encoding="UTF-8" standalone="no"?>
<svg
   xmlns:dc="http://purl.org/dc/elements/1.1/"
   xmlns:cc="http://creativecommons.org/ns#"
   xmlns:rdf="http://www.w3.org/1999/02/22-rdf-syntax-ns#"
   xmlns:svg="http://www.w3.org/2000/svg"
   xmlns="http://www.w3.org/2000/svg"
   xmlns:sodipodi="http://sodipodi.sourceforge.net/DTD/sodipodi-0.dtd"
   xmlns:inkscape="http://www.inkscape.org/namespaces/inkscape"
   version="1.1"
   id="Layer_1"
   x="0px"
   y="0px"
   viewBox="0 0 195.39999 255.7"
   xml:space="preserve"
   sodipodi:docname="opensource.svg"
   width="195.39999"
   height="255.7"
   inkscape:version="1.0.2 (1.0.2+r75+1)"><metadata
   id="metadata118"><rdf:RDF><cc:Work
       rdf:about=""><dc:format>image/svg+xml</dc:format><dc:type
         rdf:resource="http://purl.org/dc/dcmitype/StillImage" /><dc:title></dc:title></cc:Work></rdf:RDF></metadata><defs
   id="defs116" /><sodipodi:namedview
   pagecolor="#ffffff"
   bordercolor="#666666"
   borderopacity="1"
   objecttolerance="10"
   gridtolerance="10"
   guidetolerance="10"
   inkscape:pageopacity="0"
   inkscape:pageshadow="2"
   inkscape:window-width="1920"
   inkscape:window-height="1136"
   id="namedview114"
   showgrid="false"
   fit-margin-top="0"
   fit-margin-left="0"
   fit-margin-right="0"
   fit-margin-bottom="0"
   inkscape:zoom="1.47"
   inkscape:cx="97.7"
   inkscape:cy="127.8"
   inkscape:window-x="1920"
   inkscape:window-y="27"
   inkscape:window-maximized="1"
   inkscape:current-layer="Layer_1" />
<style
   type="text/css"
   id="style83">
	.st0{fill:#E53323;}
	.st1{fill:#231F20;}
</style>
<g
   id="g111"
   transform="translate(-152.3,-122.2)">
	<g
   id="g89">
		<path
   class="st0"
   d="M 304.6,184.8 C 293.8,184.8 285,176 285,165.2 v -43 H 167.4 c -8.3,0 -15.1,6.8 -15.1,15.1 v 225.5 c 0,8.3 6.8,15.1 15.1,15.1 h 165.2 c 8.3,0 15.1,-6.8 15.1,-15.1 v -178 z"
   id="path85" />
		<path
   class="st0"
   d="m 304.6,178.1 h 39.7 l -52.6,-52.6 v 39.7 c 0,7.1 5.8,12.9 12.9,12.9 z"
   id="path87" />
	</g>
	<g
   id="g109">
		<path
   class="st1"
   d="m 250,324.1 c -34.8,0 -63.1,-28.3 -63.1,-63.1 0,-34.8 28.3,-63.1 63.1,-63.1 34.8,0 63.1,28.3 63.1,63.1 0,34.8 -28.3,63.1 -63.1,63.1 z m 0,-118.9 c -30.7,0 -55.8,25 -55.8,55.8 0,30.7 25,55.8 55.8,55.8 30.7,0 55.8,-25 55.8,-55.8 0,-30.8 -25.1,-55.8 -55.8,-55.8 z"
   id="path91" />
		<g
   id="g107">
			<g
   id="g105">
				<g
   id="g95">
					<polygon
   class="st1"
   points="227.6,238.4 232.4,243.3 214.4,261.3 232.4,279.4 227.6,284.3 204.6,261.3 "
   id="polygon93" />
				</g>
				<g
   id="g99">
					<polygon
   class="st1"
   points="285.6,261.3 267.6,243.3 272.4,238.4 295.4,261.3 272.4,284.3 267.6,279.4 "
   id="polygon97" />
				</g>
				<g
   id="g103">
					
						<rect
   x="226.2"
   y="257.5"
   transform="matrix(0.251,-0.968,0.968,0.251,-65.346,437.4643)"
   class="st1"
   width="47.599998"
   height="6.9000001"
   id="rect101" />
				</g>
			</g>
		</g>
	</g>
</g>
</svg>
