<?xml version="1.0" standalone="no"?>
<!DOCTYPE svg PUBLIC "-//W3C//DTD SVG 20010904//EN"
 "http://www.w3.org/TR/2001/REC-SVG-20010904/DTD/svg10.dtd">
<svg version="1.0" xmlns="http://www.w3.org/2000/svg"
 width="520.000000pt" height="520.000000pt" viewBox="0 0 520.000000 520.000000"
 preserveAspectRatio="xMidYMid meet">
<metadata>
Created by potrace 1.14, written by Peter Selinger 2001-2017
</metadata>
<g transform="translate(0.000000,520.000000) scale(0.100000,-0.100000)"
fill="#000000" stroke="none">
<path d="M2309 4103 c-9 -2 -24 -18 -33 -36 -16 -30 -17 -140 -14 -1478 l3
-1447 25 -21 25 -20 1401 -1 1401 0 27 26 26 26 0 1445 c0 1493 1 1470 -39
1500 -12 10 -329 12 -1411 12 -767 -1 -1402 -3 -1411 -6z m2372 -461 c1 -36 1
-1999 0 -2035 -1 -15 -12 -39 -26 -52 -24 -25 -27 -25 -191 -25 -192 0 -212 6
-272 79 -21 25 -155 201 -298 391 -142 190 -264 352 -271 360 -6 8 -87 116
-180 239 l-168 224 -3 -646 -2 -647 -244 0 -245 0 2 1051 2 1051 24 19 c21 17
41 19 193 19 137 0 177 -3 205 -17 27 -13 133 -147 500 -637 256 -342 472
-627 479 -635 11 -12 13 82 13 580 0 327 0 621 1 654 l0 60 240 -3 240 -3 1
-27z"/>
<path d="M569 3689 c-132 -9 -175 -33 -335 -191 -153 -150 -188 -199 -203
-282 -7 -38 -10 -263 -8 -650 l2 -591 28 -59 c38 -83 285 -329 372 -372 l60
-29 392 -2 c496 -3 471 -8 758 162 72 42 131 78 133 80 2 1 -7 20 -18 41 -12
20 -55 104 -95 185 l-74 147 -103 -39 c-57 -22 -139 -54 -183 -71 l-80 -31
-270 -2 c-304 -3 -286 -7 -365 77 l-47 49 0 490 0 490 59 62 59 62 257 2 c290
2 242 11 513 -95 l127 -49 91 178 c50 97 91 183 91 190 0 19 -299 189 -380
216 -37 12 -91 25 -121 29 -69 9 -549 11 -660 3z"/>
</g>
</svg>
