<?xml version="1.0" encoding="UTF-8" standalone="no"?>
<svg
   xmlns:dc="http://purl.org/dc/elements/1.1/"
   xmlns:cc="http://creativecommons.org/ns#"
   xmlns:rdf="http://www.w3.org/1999/02/22-rdf-syntax-ns#"
   xmlns:svg="http://www.w3.org/2000/svg"
   xmlns="http://www.w3.org/2000/svg"
   xmlns:sodipodi="http://sodipodi.sourceforge.net/DTD/sodipodi-0.dtd"
   xmlns:inkscape="http://www.inkscape.org/namespaces/inkscape"
   version="1.1"
   id="Layer_1"
   x="0px"
   y="0px"
   viewBox="0 0 272.09998 300"
   xml:space="preserve"
   sodipodi:docname="bridge-icon.svg"
   width="272.09998"
   height="300"
   inkscape:version="1.0.2 (1.0.2+r75+1)"><metadata
   id="metadata45"><rdf:RDF><cc:Work
       rdf:about=""><dc:format>image/svg+xml</dc:format><dc:type
         rdf:resource="http://purl.org/dc/dcmitype/StillImage" /><dc:title></dc:title></cc:Work></rdf:RDF></metadata><defs
   id="defs43" /><sodipodi:namedview
   pagecolor="#ffffff"
   bordercolor="#666666"
   borderopacity="1"
   objecttolerance="10"
   gridtolerance="10"
   guidetolerance="10"
   inkscape:pageopacity="0"
   inkscape:pageshadow="2"
   inkscape:window-width="782"
   inkscape:window-height="869"
   id="namedview41"
   showgrid="false"
   fit-margin-top="0"
   fit-margin-left="0.5"
   fit-margin-right="0"
   fit-margin-bottom="0"
   lock-margins="false"
   viewbox-x="0"
   inkscape:zoom="1.47"
   inkscape:cx="136.3"
   inkscape:cy="135.4"
   inkscape:window-x="2413"
   inkscape:window-y="59"
   inkscape:window-maximized="0"
   inkscape:current-layer="Layer_1" />
<style
   type="text/css"
   id="style2">
	.st0{fill:#231F20;}
	.st1{fill:#E53323;}
</style>
<g
   id="g38"
   transform="translate(-113.70001,-114.6)">
	
		<rect
   x="211.5"
   y="150.8"
   transform="matrix(0.8433,-0.5375,0.5375,0.8433,-71.4161,146.2144)"
   class="st0"
   width="7"
   height="89.599998"
   id="rect4" />
	
		<rect
   x="283.10001"
   y="263.29999"
   transform="matrix(0.8433,-0.5375,0.5375,0.8433,-120.6992,202.323)"
   class="st0"
   width="7"
   height="89.599998"
   id="rect6" />
	
		<rect
   x="146.7"
   y="283"
   transform="matrix(0.8433,-0.5375,0.5375,0.8433,-123.9662,147.827)"
   class="st0"
   width="89.599998"
   height="7"
   id="rect8" />
	
		<rect
   x="259.29999"
   y="211.39999"
   transform="matrix(0.8433,-0.5375,0.5375,0.8433,-67.8704,197.105)"
   class="st0"
   width="89.599998"
   height="7"
   id="rect10" />
	
		<rect
   x="237.89999"
   y="203.10001"
   transform="matrix(0.2304,-0.9731,0.9731,0.2304,-1.1985,411.7634)"
   class="st0"
   width="43.700001"
   height="7"
   id="rect12" />
	
		<rect
   x="218.10001"
   y="290"
   transform="matrix(0.2304,-0.9731,0.9731,0.2304,-100.8984,459.3687)"
   class="st0"
   width="43.700001"
   height="7"
   id="rect14" />
	
		<rect
   x="202.89999"
   y="218.39999"
   transform="matrix(0.2305,-0.9731,0.9731,0.2305,-74.8548,385.7083)"
   class="st0"
   width="7"
   height="43.700001"
   id="rect16" />
	
		<rect
   x="289.79999"
   y="238.10001"
   transform="matrix(0.2305,-0.9731,0.9731,0.2305,-27.2508,485.4091)"
   class="st0"
   width="7"
   height="43.700001"
   id="rect18" />
	<circle
   class="st1"
   cx="250.39999"
   cy="249.60001"
   r="24.4"
   id="circle20" />
	<circle
   class="st1"
   cx="179.39999"
   cy="139"
   r="24.4"
   id="circle22" />
	<circle
   class="st1"
   cx="361.39999"
   cy="178.10001"
   r="24.4"
   id="circle24" />
	<circle
   class="st1"
   cx="320.60001"
   cy="361"
   r="24.4"
   id="circle26" />
	<circle
   class="st1"
   cx="138.60001"
   cy="319.70001"
   r="24.4"
   id="circle28" />
	<circle
   class="st1"
   cx="267"
   cy="172.10001"
   r="14.6"
   id="circle30" />
	<circle
   class="st1"
   cx="327.10001"
   cy="266.79999"
   r="14.6"
   id="circle32" />
	<circle
   class="st1"
   cx="232.10001"
   cy="326.5"
   r="14.6"
   id="circle34" />
	<circle
   class="st1"
   cx="172.8"
   cy="232.3"
   r="14.6"
   id="circle36" />
</g>
</svg>
