<?xml version="1.0" encoding="UTF-8" standalone="no"?>
<!DOCTYPE svg PUBLIC "-//W3C//DTD SVG 1.0//EN" "http://www.w3.org/TR/2001/PR-SVG-20010719/DTD/svg10.dtd">
<svg width="33cm" height="16cm" viewBox="319 179 642 302" xmlns="http://www.w3.org/2000/svg" xmlns:xlink="http://www.w3.org/1999/xlink">
  <g id="Fons"/>
  <g id="Fons">
    <g>
      <rect style="fill: #ffffff; fill-opacity: 1; stroke-opacity: 1; stroke-width: 2; stroke: #000000" x="320" y="200" width="320" height="280"/>
      <rect style="fill: #ffffff; fill-opacity: 1; stroke-opacity: 1; stroke-width: 2; stroke: #000000" x="320" y="180" width="96.4" height="20"/>
      <text font-size="12.8" style="fill: #000000; fill-opacity: 1; stroke: none;text-anchor:start;font-family:monospace;font-style:normal;font-weight:normal" x="322" y="194.981">Scraper host</text>
    </g>
    <g>
      <rect style="fill: #ffffff; fill-opacity: 1; stroke-opacity: 1; stroke-width: 2; stroke: #000000" x="460" y="240" width="102.1" height="52" rx="20" ry="20"/>
      <text font-size="12.8" style="fill: #000000; fill-opacity: 1; stroke: none;text-anchor:middle;font-family:sans-serif;font-style:normal;font-weight:normal" x="511.05" y="261.9">
        <tspan x="511.05" y="261.9">Webrecorder</tspan>
        <tspan x="511.05" y="277.9">container</tspan>
      </text>
    </g>
    <g>
      <rect style="fill: #ffffff; fill-opacity: 1; stroke-opacity: 1; stroke-width: 2; stroke: #000000" x="460" y="380" width="119.85" height="52" rx="20" ry="20"/>
      <text font-size="12.8" style="fill: #000000; fill-opacity: 1; stroke: none;text-anchor:middle;font-family:sans-serif;font-style:normal;font-weight:normal" x="519.925" y="401.9">
        <tspan x="519.925" y="401.9">Ouinet/CENO</tspan>
        <tspan x="519.925" y="417.9">client container</tspan>
      </text>
    </g>
    <g>
      <line style="fill: none; stroke-opacity: 1; stroke-width: 2; stroke: #000000" x1="513.042" y1="297.431" x2="517.933" y2="374.569"/>
      <polyline style="fill: none; stroke-opacity: 1; stroke-width: 2; stroke: #000000" points="518.524,304.863 512.901,295.199 508.544,305.496 "/>
      <polyline style="fill: none; stroke-opacity: 1; stroke-width: 2; stroke: #000000" points="512.451,367.137 518.074,376.801 522.431,366.504 "/>
    </g>
    <g>
      <polygon style="fill: #ffffff; fill-opacity: 1; stroke-opacity: 1; stroke-width: 2; stroke: #000000" fill-rule="evenodd" points="340,240 407.6,240 419.6,252 419.6,290 340,290 "/>
      <polyline style="fill: none; stroke-opacity: 1; stroke-width: 1; stroke: #000000" points="407.6,240 407.6,252 419.6,252 "/>
      <text font-size="12.8" style="fill: #000000; fill-opacity: 1; stroke: none;text-anchor:start;font-family:monospace;font-style:normal;font-weight:normal" x="347" y="264.9">
        <tspan x="347" y="264.9">Scraping</tspan>
        <tspan x="347" y="280.9">config.</tspan>
      </text>
    </g>
    <line style="fill: none; stroke-opacity: 1; stroke-width: 2; stroke: #000000" x1="419.606" y1="265.303" x2="459.003" y2="265.603"/>
    <g>
      <path style="fill: #ffffff; fill-opacity: 1; stroke-opacity: 1; stroke-width: 2; stroke: #000000" fill-rule="evenodd" d="M 339.975 358 C 355.545,344.5 363.33,340 378.9,340 C 394.47,340 402.255,344.5 417.825,358 L 417.825,430 C 402.255,443.5 394.47,448 378.9,448 C 363.33,448 355.545,443.5 339.975,430 L 339.975,358z"/>
      <path style="fill: none; stroke-opacity: 1; stroke-width: 2; stroke: #000000" d="M 339.975 358 C 355.545,371.5 363.33,376 378.9,376 C 394.47,376 402.255,371.5 417.825,358"/>
      <text font-size="12.8" style="fill: #000000; fill-opacity: 1; stroke: none;text-anchor:middle;font-family:sans-serif;font-style:normal;font-weight:normal" x="378.9" y="398.881">
        <tspan x="378.9" y="398.881">Ouinet</tspan>
        <tspan x="378.9" y="414.881">local cache</tspan>
      </text>
    </g>
    <line style="fill: none; stroke-opacity: 1; stroke-width: 2; stroke: #000000" x1="418.701" y1="397.387" x2="459.018" y2="400.817"/>
    <g>
      <rect style="fill: #ffffff; fill-opacity: 1; stroke-opacity: 1; stroke-width: 2; stroke: #000000" x="720" y="380" width="103.8" height="52" rx="20" ry="20"/>
      <text font-size="12.8" style="fill: #000000; fill-opacity: 1; stroke: none;text-anchor:middle;font-family:sans-serif;font-style:normal;font-weight:normal" x="771.9" y="401.9">
        <tspan x="771.9" y="401.9">Ouinet/CENO</tspan>
        <tspan x="771.9" y="417.9">injector</tspan>
      </text>
    </g>
    <g>
      <rect style="fill: #ffffff; fill-opacity: 1; stroke-opacity: 1; stroke-width: 2; stroke: #000000" x="740" y="240" width="80" height="36" rx="20" ry="20"/>
      <text font-size="12.8" style="fill: #000000; fill-opacity: 1; stroke: none;text-anchor:middle;font-family:sans-serif;font-style:normal;font-weight:normal" x="780" y="261.9">
        <tspan x="780" y="261.9">Website</tspan>
      </text>
    </g>
    <g>
      <line style="fill: none; stroke-opacity: 1; stroke-width: 2; stroke: #000000" x1="585.315" y1="406" x2="714.646" y2="406"/>
      <polyline style="fill: none; stroke-opacity: 1; stroke-width: 2; stroke: #000000" points="593.079,401 583.079,406 593.079,411 "/>
      <polyline style="fill: none; stroke-opacity: 1; stroke-width: 2; stroke: #000000" points="706.882,411 716.882,406 706.882,401 "/>
    </g>
    <g>
      <line style="fill: none; stroke-opacity: 1; stroke-width: 2; stroke: #000000" x1="778.717" y1="281.435" x2="773.622" y2="374.534"/>
      <polyline style="fill: none; stroke-opacity: 1; stroke-width: 2; stroke: #000000" points="783.286,289.461 778.84,279.202 773.301,288.914 "/>
      <polyline style="fill: none; stroke-opacity: 1; stroke-width: 2; stroke: #000000" points="769.054,366.509 773.5,376.767 779.039,367.055 "/>
    </g>
    <g>
      <polygon style="fill: #ffffff; fill-opacity: 1; stroke-opacity: 1; stroke-width: 2; stroke: #000000" fill-rule="evenodd" points="880,240 947.6,240 959.6,252 959.6,290 880,290 "/>
      <polyline style="fill: none; stroke-opacity: 1; stroke-width: 1; stroke: #000000" points="947.6,240 947.6,252 959.6,252 "/>
      <text font-size="12.8" style="fill: #000000; fill-opacity: 1; stroke: none;text-anchor:start;font-family:monospace;font-style:normal;font-weight:normal" x="887" y="264.9">
        <tspan x="887" y="264.9">Web</tspan>
        <tspan x="887" y="280.9">resource</tspan>
      </text>
    </g>
    <line style="fill: none; stroke-opacity: 1; stroke-width: 2; stroke: #000000" x1="821" y1="260.053" x2="879.995" y2="263.007"/>
    <g>
      <polygon style="fill: #ffffff; fill-opacity: 1; stroke-opacity: 1; stroke-width: 2; stroke: #000000" fill-rule="evenodd" points="880,380 939.9,380 951.9,392 951.9,430 880,430 "/>
      <polyline style="fill: none; stroke-opacity: 1; stroke-width: 1; stroke: #000000" points="939.9,380 939.9,392 951.9,392 "/>
      <text font-size="12.8" style="fill: #000000; fill-opacity: 1; stroke: none;text-anchor:start;font-family:monospace;font-style:normal;font-weight:normal" x="887" y="404.9">
        <tspan x="887" y="404.9">Signing</tspan>
        <tspan x="887" y="420.9">key</tspan>
      </text>
    </g>
    <line style="fill: none; stroke-opacity: 1; stroke-width: 2; stroke: #000000" x1="824.802" y1="405.633" x2="879.999" y2="405.25"/>
    <text font-size="12.8" style="fill: #000000; fill-opacity: 1; stroke: none;text-anchor:start;font-family:sans-serif;font-style:normal;font-weight:normal" x="520" y="340">
      <tspan x="520" y="340">(HTTP(S) proxy)</tspan>
    </text>
  </g>
</svg>
