<?xml version="1.0" encoding="UTF-8" standalone="no"?>
<svg
   xmlns:dc="http://purl.org/dc/elements/1.1/"
   xmlns:cc="http://creativecommons.org/ns#"
   xmlns:rdf="http://www.w3.org/1999/02/22-rdf-syntax-ns#"
   xmlns:svg="http://www.w3.org/2000/svg"
   xmlns="http://www.w3.org/2000/svg"
   xmlns:sodipodi="http://sodipodi.sourceforge.net/DTD/sodipodi-0.dtd"
   xmlns:inkscape="http://www.inkscape.org/namespaces/inkscape"
   width="24.75325mm"
   height="32.460564mm"
   viewBox="0 0 24.75325 32.460564"
   version="1.1"
   id="svg1502"
   inkscape:version="1.0.2 (1.0.2+r75+1)"
   sodipodi:docname="opensource.svg">
  <defs
     id="defs1496">
    <clipPath
       clipPathUnits="userSpaceOnUse"
       id="clipPath707">
      <path
         d="M 0,0 H 792 V 612 H 0 Z"
         id="path705" />
    </clipPath>
  </defs>
  <sodipodi:namedview
     id="base"
     pagecolor="#ffffff"
     bordercolor="#666666"
     borderopacity="1.0"
     inkscape:pageopacity="0.0"
     inkscape:pageshadow="2"
     inkscape:zoom="0.35"
     inkscape:cx="50.737758"
     inkscape:cy="14.771931"
     inkscape:document-units="mm"
     inkscape:current-layer="layer1"
     inkscape:document-rotation="0"
     showgrid="false"
     fit-margin-top="0"
     fit-margin-left="0"
     fit-margin-right="0"
     fit-margin-bottom="0"
     inkscape:window-width="1920"
     inkscape:window-height="1136"
     inkscape:window-x="1280"
     inkscape:window-y="27"
     inkscape:window-maximized="1" />
  <metadata
     id="metadata1499">
    <rdf:RDF>
      <cc:Work
         rdf:about="">
        <dc:format>image/svg+xml</dc:format>
        <dc:type
           rdf:resource="http://purl.org/dc/dcmitype/StillImage" />
        <dc:title></dc:title>
      </cc:Work>
    </rdf:RDF>
  </metadata>
  <g
     inkscape:label="Layer 1"
     inkscape:groupmode="layer"
     id="layer1"
     transform="translate(-92.408968,-144.25826)">
    <g
       id="g605"
       transform="matrix(0.35277777,0,0,-0.35277777,109.56949,144.49575)">
      <path
         d="m 0,0 h -43.262 c -2.96,0 -5.382,-2.422 -5.382,-5.382 V -85.96 c 0,-2.96 2.422,-5.381 5.382,-5.381 h 59.039 c 2.961,0 5.382,2.421 5.382,5.381 v 64.801 z"
         style="fill:#fe1a0e;fill-opacity:1;fill-rule:nonzero;stroke:none"
         id="path607-2" />
    </g>
    <g
       id="g609"
       transform="matrix(0.35277777,0,0,-0.35277777,109.56021,144.25826)">
      <path
         d="m 0,0 v -16.025 c 0,-3.208 2.601,-5.809 5.809,-5.809 h 15.74"
         style="fill:none;stroke:#ffffff;stroke-width:2.383;stroke-linecap:butt;stroke-linejoin:miter;stroke-miterlimit:10;stroke-dasharray:none;stroke-opacity:1"
         id="path611" />
    </g>
    <g
       id="g701"
       transform="matrix(0.35277777,0,0,-0.35277777,-118.08781,276.83324)">
      <g
         id="g703"
         clip-path="url(#clipPath707)">
        <g
           id="g709"
           transform="translate(652.8317,323.0214)">
          <path
             d="m 0,0 c 0,-11.734 -9.512,-21.246 -21.246,-21.246 -11.734,0 -21.247,9.512 -21.247,21.246 0,11.734 9.513,21.246 21.247,21.246 C -9.512,21.246 0,11.734 0,0 Z"
             style="fill:none;stroke:#ffffff;stroke-width:2.64;stroke-linecap:butt;stroke-linejoin:miter;stroke-miterlimit:10;stroke-dasharray:none;stroke-opacity:1"
             id="path711" />
        </g>
      </g>
    </g>
    <g
       id="g713"
       transform="matrix(0.35277777,0,0,-0.35277777,101.89379,165.81665)">
      <path
         d="M 0,0 -8.196,8.196 0,16.391 1.739,14.652 -4.717,8.196 1.739,1.739 Z"
         style="fill:#ffffff;fill-opacity:1;fill-rule:nonzero;stroke:none"
         id="path715" />
    </g>
    <g
       id="g717"
       transform="matrix(0.35277777,0,0,-0.35277777,107.5492,165.81665)">
      <path
         d="M 0,0 -1.739,1.739 4.717,8.196 -1.739,14.652 0,16.391 8.196,8.196 Z"
         style="fill:#ffffff;fill-opacity:1;fill-rule:nonzero;stroke:none"
         id="path719" />
    </g>
    <g
       id="g721"
       transform="matrix(0.35277777,0,0,-0.35277777,104.38923,165.88985)">
      <path
         d="m 0,0 -2.381,0.617 4.267,16.455 2.38,-0.616 z"
         style="fill:#ffffff;fill-opacity:1;fill-rule:nonzero;stroke:none"
         id="path723" />
    </g>
  </g>
</svg>
