<?xml version="1.0" encoding="UTF-8" standalone="no"?>
<svg
   xmlns:dc="http://purl.org/dc/elements/1.1/"
   xmlns:cc="http://creativecommons.org/ns#"
   xmlns:rdf="http://www.w3.org/1999/02/22-rdf-syntax-ns#"
   xmlns:svg="http://www.w3.org/2000/svg"
   xmlns="http://www.w3.org/2000/svg"
   xmlns:sodipodi="http://sodipodi.sourceforge.net/DTD/sodipodi-0.dtd"
   xmlns:inkscape="http://www.inkscape.org/namespaces/inkscape"
   width="34.370045mm"
   height="34.748081mm"
   viewBox="0 0 34.370045 34.748081"
   version="1.1"
   id="svg1812"
   inkscape:version="1.0.2 (1.0.2+r75+1)"
   sodipodi:docname="web_unlock.svg">
  <defs
     id="defs1806">
    <clipPath
       clipPathUnits="userSpaceOnUse"
       id="clipPath635">
      <path
         d="M 0,0 H 792 V 612 H 0 Z"
         id="path633" />
    </clipPath>
  </defs>
  <sodipodi:namedview
     id="base"
     pagecolor="#ffffff"
     bordercolor="#666666"
     borderopacity="1.0"
     inkscape:pageopacity="0.0"
     inkscape:pageshadow="2"
     inkscape:zoom="0.35"
     inkscape:cx="86.944862"
     inkscape:cy="-24.867939"
     inkscape:document-units="mm"
     inkscape:current-layer="layer1"
     inkscape:document-rotation="0"
     showgrid="false"
     fit-margin-top="0"
     fit-margin-left="0"
     fit-margin-right="0"
     fit-margin-bottom="0"
     inkscape:window-width="1920"
     inkscape:window-height="1136"
     inkscape:window-x="1280"
     inkscape:window-y="27"
     inkscape:window-maximized="1" />
  <metadata
     id="metadata1809">
    <rdf:RDF>
      <cc:Work
         rdf:about="">
        <dc:format>image/svg+xml</dc:format>
        <dc:type
           rdf:resource="http://purl.org/dc/dcmitype/StillImage" />
        <dc:title></dc:title>
      </cc:Work>
    </rdf:RDF>
  </metadata>
  <g
     inkscape:label="Layer 1"
     inkscape:groupmode="layer"
     id="layer1"
     transform="translate(-82.829172,-154.74631)">
    <g
       id="g613"
       transform="matrix(0.35277777,0,0,-0.35277777,100.64233,189.49439)">
      <path
         d="m 0,0 h -45.151 c -2.816,0 -5.12,2.304 -5.12,5.12 v 81.101 c 0,2.816 2.304,5.12 5.12,5.12 H 0 c 2.816,0 5.12,-2.304 5.12,-5.12 V 5.12 C 5.12,2.304 2.816,0 0,0"
         style="fill:#fe1a0e;fill-opacity:1;fill-rule:nonzero;stroke:none"
         id="path615" />
    </g>
    <g
       id="g617"
       transform="matrix(0.35277777,0,0,-0.35277777,82.829172,160.99802)">
      <path
         d="M 0,0 H 55.837"
         style="fill:none;stroke:#ffffff;stroke-width:2.64;stroke-linecap:butt;stroke-linejoin:miter;stroke-miterlimit:10;stroke-dasharray:none;stroke-opacity:1"
         id="path619" />
    </g>
    <g
       id="g621"
       transform="matrix(0.35277777,0,0,-0.35277777,90.890074,158.93537)">
      <path
         d="M 0,0 H 10.138"
         style="fill:none;stroke:#ffffff;stroke-width:2.64;stroke-linecap:round;stroke-linejoin:round;stroke-miterlimit:10;stroke-dasharray:none;stroke-opacity:1"
         id="path623" />
    </g>
    <g
       id="g625"
       transform="matrix(0.35277777,0,0,-0.35277777,82.829172,185.7571)">
      <path
         d="M 0,0 H 55.837"
         style="fill:none;stroke:#ffffff;stroke-width:2.64;stroke-linecap:butt;stroke-linejoin:miter;stroke-miterlimit:10;stroke-dasharray:none;stroke-opacity:1"
         id="path627" />
    </g>
    <g
       id="g629"
       transform="matrix(0.35277777,0,0,-0.35277777,37.577627,289.60877)">
      <g
         id="g631"
         clip-path="url(#clipPath635)">
        <g
           id="g637"
           transform="translate(211.4464,348.4186)">
          <path
             d="M 0,0 3.702,-0.758 0,-1.517 c -4.181,-0.856 -7.448,-4.124 -8.305,-8.305 l -0.758,-3.702 -0.759,3.702 c -0.856,4.181 -4.124,7.449 -8.305,8.305 l -3.702,0.759 3.702,0.758 c 4.181,0.856 7.449,4.124 8.305,8.305 l 0.759,3.702 0.758,-3.702 C -7.448,4.124 -4.181,0.856 0,0"
             style="fill:#fe1a0e;fill-opacity:1;fill-rule:nonzero;stroke:none"
             id="path639" />
        </g>
        <g
           id="g641"
           transform="translate(218.873,368.7302)">
          <path
             d="M 0,0 -0.431,2.104 -0.862,0 c -0.487,-2.377 -2.345,-4.235 -4.722,-4.722 l -2.105,-0.431 2.105,-0.431 c 2.377,-0.487 4.235,-2.345 4.722,-4.722 L -0.431,-12.41 0,-10.306 c 0.487,2.377 2.344,4.235 4.722,4.722 l 2.104,0.431 -2.104,0.431 C 2.344,-4.235 0.487,-2.377 0,0"
             style="fill:#fe1a0e;fill-opacity:1;fill-rule:nonzero;stroke:none"
             id="path643" />
        </g>
        <g
           id="g645"
           transform="translate(202.8141,380.1823)">
          <path
             d="M 0,0 -0.431,2.105 -0.862,0 c -0.487,-2.377 -2.345,-4.234 -4.722,-4.722 l -2.104,-0.431 2.104,-0.431 c 2.377,-0.487 4.235,-2.345 4.722,-4.722 L -0.431,-12.41 0,-10.306 c 0.487,2.377 2.345,4.235 4.722,4.722 l 2.105,0.431 -2.105,0.431 C 2.345,-4.234 0.487,-2.377 0,0"
             style="fill:#fe1a0e;fill-opacity:1;fill-rule:nonzero;stroke:none"
             id="path647" />
        </g>
        <g
           id="g649"
           transform="translate(149.578,325.1967)">
          <path
             d="m 0,0 v 13.752 c 0,3.832 3.107,6.939 6.939,6.939 3.833,0 6.939,-3.107 6.939,-6.939 v -2.154"
             style="fill:none;stroke:#ffffff;stroke-width:2.64;stroke-linecap:butt;stroke-linejoin:miter;stroke-miterlimit:10;stroke-dasharray:none;stroke-opacity:1"
             id="path651" />
        </g>
        <g
           id="g653"
           transform="translate(166.5001,313.0311)">
          <path
             d="m 0,0 h -20.619 c -0.468,0 -0.848,0.38 -0.848,0.848 v 17.824 c 0,0.469 0.38,0.849 0.848,0.849 H 0 c 0.469,0 0.849,-0.38 0.849,-0.849 V 0.848 C 0.849,0.38 0.469,0 0,0"
             style="fill:#ffffff;fill-opacity:1;fill-rule:nonzero;stroke:none"
             id="path655" />
        </g>
        <g
           id="g657"
           transform="translate(159.1232,324.2151)">
          <path
             d="m 0,0 c 0,-1.619 -1.313,-2.933 -2.932,-2.933 -1.62,0 -2.933,1.314 -2.933,2.933 0,1.62 1.313,2.933 2.933,2.933 C -1.313,2.933 0,1.62 0,0"
             style="fill:#fe1a0e;fill-opacity:1;fill-rule:nonzero;stroke:none"
             id="path659" />
        </g>
      </g>
    </g>
    <path
       d="M 93.118606,177.27163 H 92.23772 v -1.43122 h 0.880886 z"
       style="fill:#fe1a0e;fill-opacity:1;fill-rule:nonzero;stroke:none;stroke-width:0.352778"
       id="path661" />
  </g>
</svg>
