<?xml version="1.0" encoding="UTF-8" standalone="no"?>
<svg
   xmlns:dc="http://purl.org/dc/elements/1.1/"
   xmlns:cc="http://creativecommons.org/ns#"
   xmlns:rdf="http://www.w3.org/1999/02/22-rdf-syntax-ns#"
   xmlns:svg="http://www.w3.org/2000/svg"
   xmlns="http://www.w3.org/2000/svg"
   xmlns:sodipodi="http://sodipodi.sourceforge.net/DTD/sodipodi-0.dtd"
   xmlns:inkscape="http://www.inkscape.org/namespaces/inkscape"
   version="1.1"
   id="Layer_1"
   x="0px"
   y="0px"
   viewBox="0 0 249.39999 300"
   xml:space="preserve"
   sodipodi:docname="web_unlock.svg"
   width="249.39999"
   height="300"
   inkscape:version="1.0.2 (1.0.2+r75+1)"><metadata
   id="metadata27"><rdf:RDF><cc:Work
       rdf:about=""><dc:format>image/svg+xml</dc:format><dc:type
         rdf:resource="http://purl.org/dc/dcmitype/StillImage" /><dc:title></dc:title></cc:Work></rdf:RDF></metadata><defs
   id="defs25" /><sodipodi:namedview
   pagecolor="#ffffff"
   bordercolor="#666666"
   borderopacity="1"
   objecttolerance="10"
   gridtolerance="10"
   guidetolerance="10"
   inkscape:pageopacity="0"
   inkscape:pageshadow="2"
   inkscape:window-width="769"
   inkscape:window-height="480"
   id="namedview23"
   showgrid="false"
   fit-margin-top="0"
   fit-margin-left="0"
   fit-margin-right="0"
   fit-margin-bottom="0"
   inkscape:zoom="1.47"
   inkscape:cx="124.7"
   inkscape:cy="137.8"
   inkscape:window-x="2811"
   inkscape:window-y="140"
   inkscape:window-maximized="0"
   inkscape:current-layer="Layer_1" />
<style
   type="text/css"
   id="style2">
	.st0{fill:#E53323;}
	.st1{fill:#231F20;}
</style>
<g
   id="g20"
   transform="translate(-125.3,-112.2)">
	<rect
   x="125.3"
   y="165.5"
   class="st0"
   width="138.7"
   height="189"
   id="rect4" />
	<path
   class="st0"
   d="m 125.3,361.9 v 11.6 c 0,7.9 6.4,14.3 14.3,14.3 h 110 c 7.9,0 14.3,-6.4 14.3,-14.3 v -11.6 z"
   id="path6" />
	<path
   class="st0"
   d="m 249.7,132.2 h -110 c -7.9,0 -14.3,6.4 -14.3,14.3 V 158 H 264 v -11.5 c 0,-7.8 -6.4,-14.3 -14.3,-14.3 z m -40.8,16.9 h -28.4 c -2,0 -3.7,-1.7 -3.7,-3.7 0,-2 1.7,-3.7 3.7,-3.7 h 28.4 c 2,0 3.7,1.7 3.7,3.7 0,2 -1.7,3.7 -3.7,3.7 z"
   id="path8" />
	<g
   id="g16">
		<path
   class="st0"
   d="m 334.8,207 10.4,2.1 -10.4,2.1 c -11.7,2.4 -20.8,11.5 -23.2,23.2 l -2.1,10.4 -2.1,-10.4 C 305,222.7 295.9,213.6 284.2,211.2 l -10.4,-2.1 10.4,-2.1 c 11.7,-2.4 20.8,-11.5 23.2,-23.2 l 2.1,-10.4 2.1,10.4 c 2.3,11.6 11.5,20.8 23.2,23.2 z"
   id="path10" />
		<path
   class="st0"
   d="m 355.6,150.1 -1.2,-5.9 -1.2,5.9 c -1.4,6.7 -6.6,11.8 -13.2,13.2 l -5.9,1.2 5.9,1.2 c 6.7,1.4 11.8,6.6 13.2,13.2 l 1.2,5.9 1.2,-5.9 c 1.4,-6.7 6.6,-11.8 13.2,-13.2 l 5.9,-1.2 -5.9,-1.2 c -6.7,-1.3 -11.9,-6.5 -13.2,-13.2 z"
   id="path12" />
		<path
   class="st0"
   d="m 310.6,118.1 -1.2,-5.9 -1.2,5.9 c -1.4,6.7 -6.6,11.8 -13.2,13.2 l -5.9,1.2 5.9,1.2 c 6.7,1.4 11.8,6.6 13.2,13.2 l 1.2,5.9 1.2,-5.9 c 1.4,-6.7 6.6,-11.8 13.2,-13.2 l 5.9,-1.2 -5.9,-1.2 c -6.6,-1.4 -11.8,-6.6 -13.2,-13.2 z"
   id="path14" />
	</g>
	<path
   class="st1"
   d="m 223.5,251.4 h -43.7 v -17.9 c 0,-8.7 7.1,-15.7 15.7,-15.7 8.6,0 15.7,7 15.7,15.7 v 6 h 7.4 v -6 c 0,-12.7 -10.4,-23.1 -23.1,-23.1 -12.7,0 -23.1,10.4 -23.1,23.1 v 17.9 h -6.6 c -1.3,0 -2.4,1.1 -2.4,2.4 v 49.9 c 0,1.3 1.1,2.4 2.4,2.4 h 57.7 c 1.3,0 2.4,-1.1 2.4,-2.4 v -49.9 c 0,-1.4 -1.1,-2.4 -2.4,-2.4 z M 198.2,282 v 8.8 h -7 V 282 c -2.8,-1.3 -4.7,-4.1 -4.7,-7.4 0,-4.5 3.7,-8.2 8.2,-8.2 4.5,0 8.2,3.7 8.2,8.2 0,3.4 -2,6.1 -4.7,7.4 z"
   id="path18" />
</g>
</svg>
